<?xml version="1.0" encoding="UTF-8" standalone="no"?>
<svg
   xmlns:dc="http://purl.org/dc/elements/1.1/"
   xmlns:cc="http://creativecommons.org/ns#"
   xmlns:rdf="http://www.w3.org/1999/02/22-rdf-syntax-ns#"
   xmlns:svg="http://www.w3.org/2000/svg"
   xmlns="http://www.w3.org/2000/svg"
   xmlns:sodipodi="http://sodipodi.sourceforge.net/DTD/sodipodi-0.dtd"
   xmlns:inkscape="http://www.inkscape.org/namespaces/inkscape"
   width="132.29222mm"
   height="41.277767mm"
   viewBox="0 0 132.29222 41.277767"
   version="1.1"
   id="svg1763"
   inkscape:version="1.0.1 (3bc2e813f5, 2020-09-07)"
   sodipodi:docname="logo.svg">
  <defs
     id="defs1757" />
  <sodipodi:namedview
     id="base"
     pagecolor="#ffffff"
     bordercolor="#666666"
     borderopacity="1.0"
     inkscape:pageopacity="0.0"
     inkscape:pageshadow="2"
     inkscape:zoom="0.35"
     inkscape:cx="243.18202"
     inkscape:cy="247.90548"
     inkscape:document-units="mm"
     inkscape:current-layer="layer1"
     inkscape:document-rotation="0"
     showgrid="false"
     fit-margin-top="0"
     fit-margin-left="0"
     fit-margin-right="0"
     fit-margin-bottom="0"
     inkscape:window-width="1439"
     inkscape:window-height="1023"
     inkscape:window-x="117"
     inkscape:window-y="27"
     inkscape:window-maximized="0" />
  <metadata
     id="metadata1760">
    <rdf:RDF>
      <cc:Work
         rdf:about="">
        <dc:format>image/svg+xml</dc:format>
        <dc:type
           rdf:resource="http://purl.org/dc/dcmitype/StillImage" />
        <dc:title></dc:title>
      </cc:Work>
    </rdf:RDF>
  </metadata>
  <g
     inkscape:label="Layer 1"
     inkscape:groupmode="layer"
     id="layer1"
     transform="translate(-41.491423,-82.575008)">
    <path
       d="m 120.68177,101.99103 a 1.7250833,1.7250833 0 0 0 -0.59267,-1.36525 q -0.59267,-0.52917 -2.07698,-0.971019 -2.54794,-0.769938 -3.86556,-1.80975 a 3.4184167,3.4184167 0 0 1 -1.32292,-2.838979 3.571875,3.571875 0 0 1 1.48961,-2.95275 q 1.48431,-1.145646 3.78883,-1.148291 2.45004,0 3.937,1.235604 a 3.8496875,3.8496875 0 0 1 1.44198,3.233208 l -0.0212,0.06085 h -2.8575 a 2.143125,2.143125 0 0 0 -0.66675,-1.693334 q -0.66675,-0.59002 -1.8706,-0.59002 a 2.4765,2.4765 0 0 0 -1.68805,0.529166 1.7145,1.7145 0 0 0 -0.59531,1.344084 1.4684375,1.4684375 0 0 0 0.64558,1.230312 8.6651042,8.6651042 0 0 0 2.23573,1.016 q 2.42359,0.685271 3.70417,1.793875 a 3.6724167,3.6724167 0 0 1 1.27265,2.910414 3.5110208,3.5110208 0 0 1 -1.47638,2.98186 q -1.47637,1.09273 -3.89996,1.09273 a 6.9717708,6.9717708 0 0 1 -4.07987,-1.18269 q -1.70127,-1.18269 -1.65365,-3.52954 l 0.0212,-0.0608 h 2.86015 q 0,1.30439 0.76993,1.92087 a 3.222625,3.222625 0 0 0 2.08228,0.61648 q 1.18268,0 1.80445,-0.49477 a 1.6113125,1.6113125 0 0 0 0.61384,-1.32821 z"
       style="fill:#1baa4b;stroke-width:0.264583"
       id="path812" />
    <path
       d="m 129.5797,106.04445 q -2.45004,0 -3.82058,-1.50284 -1.37054,-1.50283 -1.37583,-3.86556 v -0.40481 q 0,-2.455333 1.32291,-4.024312 1.32292,-1.56898 3.68036,-1.547813 2.20133,0 3.38137,1.349375 1.18005,1.349375 1.1774,3.635375 v 1.526645 H 127.426 l -0.0317,0.0582 a 2.9606875,2.9606875 0 0 0 0.68262,1.82033 q 0.61119,0.6985 1.81504,0.6985 a 6.0457292,6.0457292 0 0 0 1.68275,-0.20373 6.7759792,6.7759792 0 0 0 1.4314,-0.61647 l 0.79375,1.82033 a 5.508625,5.508625 0 0 1 -1.78065,0.89958 7.8554792,7.8554792 0 0 1 -2.43946,0.35719 z m -0.19314,-9.077856 a 1.6430625,1.6430625 0 0 0 -1.37054,0.611188 3.0506458,3.0506458 0 0 0 -0.57944,1.621896 l 0.0185,0.05027 h 3.59833 v -0.22225 a 2.5611667,2.5611667 0 0 0 -0.39158,-1.51077 1.4605,1.4605 0 0 0 -1.27529,-0.550334 z"
       style="fill:#1baa4b;stroke-width:0.264583"
       id="path814" />
    <path
       d="m 141.76906,105.83014 a 5.8869792,5.8869792 0 0 1 -0.27781,-0.79375 5.6065208,5.6065208 0 0 1 -0.16669,-0.84932 4.016375,4.016375 0 0 1 -1.20386,1.32292 3.01625,3.01625 0 0 1 -1.778,0.52917 q -1.71714,0 -2.64583,-0.88636 a 3.175,3.175 0 0 1 -0.93133,-2.41035 2.8866042,2.8866042 0 0 1 1.23825,-2.49238 q 1.23825,-0.883705 3.61421,-0.883705 h 1.65893 v -0.870479 a 1.698625,1.698625 0 0 0 -0.41539,-1.222375 1.6298333,1.6298333 0 0 0 -1.23296,-0.433917 1.5875,1.5875 0 0 0 -1.10596,0.34925 1.2170833,1.2170833 0 0 0 -0.38894,0.955146 h -2.84162 l -0.0212,-0.06085 q -0.0688,-1.386417 1.20915,-2.38125 1.27793,-0.994833 3.34168,-1.005417 1.96851,0 3.18824,0.992188 1.21973,0.992187 1.21708,2.838979 v 4.51908 a 8.6121875,8.6121875 0 0 0 0.11642,1.44463 7.3104375,7.3104375 0 0 0 0.37042,1.34408 z m -2.69875,-1.97115 a 2.5108958,2.5108958 0 0 0 1.37583,-0.38365 2.0849167,2.0849167 0 0 0 0.82815,-0.889 v -1.53723 h -1.65894 a 1.9685,1.9685 0 0 0 -1.42081,0.46567 1.5266458,1.5266458 0 0 0 -0.4789,1.143 1.1350625,1.1350625 0 0 0 0.35984,0.88371 1.4155208,1.4155208 0 0 0 0.99747,0.3175 z"
       style="fill:#1baa4b;stroke-width:0.264583"
       id="path816" />
    <path
       d="m 149.21444,92.214678 v 2.680229 h 1.85208 v 2.071687 h -1.85208 v 5.569476 a 1.2805833,1.2805833 0 0 0 0.26458,0.91017 0.94985417,0.94985417 0 0 0 0.70379,0.26458 2.5585208,2.5585208 0 0 0 0.40217,-0.0265 3.2490833,3.2490833 0 0 0 0.39423,-0.0847 l 0.24342,2.13254 a 5.9901667,5.9901667 0 0 1 -0.86519,0.22755 5.1540833,5.1540833 0 0 1 -0.91281,0.0767 q -1.52665,0 -2.35215,-0.84138 -0.8255,-0.84137 -0.82285,-2.64583 v -5.58271 h -1.5875 v -2.071687 h 1.5875 v -2.680225 z"
       style="fill:#1baa4b;stroke-width:0.264583"
       id="path818" />
    <path
       d="m 156.36348,92.214678 v 2.680229 h 1.85208 v 2.071687 h -1.85208 v 5.569476 a 1.2805833,1.2805833 0 0 0 0.26458,0.91017 0.94985417,0.94985417 0 0 0 0.7038,0.26458 2.6167292,2.6167292 0 0 0 0.40481,-0.0265 3.4792708,3.4792708 0 0 0 0.39423,-0.0847 l 0.24077,2.13254 a 6.048375,6.048375 0 0 1 -0.86254,0.22755 5.1831875,5.1831875 0 0 1 -0.91546,0.0767 q -1.52665,0 -2.3495,-0.84138 -0.82286,-0.84137 -0.8255,-2.64583 v -5.58271 h -1.5875 v -2.071687 h 1.5875 v -2.680225 z"
       style="fill:#1baa4b;stroke-width:0.264583"
       id="path820" />
    <path
       d="m 162.61558,105.83014 h -2.9501 V 90.06097 h 2.9501 z"
       style="fill:#1baa4b;stroke-width:0.264583"
       id="path822" />
    <path
       d="m 169.41802,106.04445 q -2.44739,0 -3.82323,-1.50284 -1.37583,-1.50283 -1.37318,-3.86556 v -0.40481 q 0,-2.455333 1.32291,-4.024312 1.32292,-1.56898 3.68036,-1.547813 2.20398,0 3.38137,1.349375 1.1774,1.349375 1.1774,3.627438 v 1.526642 h -6.51934 l -0.0318,0.0582 a 2.9606875,2.9606875 0 0 0 0.68263,1.82034 q 0.61119,0.6985 1.81504,0.6985 a 6.0457292,6.0457292 0 0 0 1.68275,-0.20373 6.7759792,6.7759792 0 0 0 1.4314,-0.61648 l 0.79375,1.82033 a 5.508625,5.508625 0 0 1 -1.78065,0.89958 7.8660625,7.8660625 0 0 1 -2.43946,0.36513 z m -0.19314,-9.077856 a 1.6430625,1.6430625 0 0 0 -1.37055,0.611188 3.0506458,3.0506458 0 0 0 -0.57943,1.61925 l 0.0185,0.05027 h 3.59833 v -0.22225 a 2.5426458,2.5426458 0 0 0 -0.39423,-1.510771 q -0.39158,-0.550334 -1.27264,-0.547688 z"
       style="fill:#1baa4b;stroke-width:0.264583"
       id="path824" />
    <path
       d="m 118.75031,115.17787 h -5.18054 v 5.29166 h -0.92869 v -11.28712 h 6.90298 v 0.79375 h -5.97429 v 4.4106 h 5.18054 z"
       style="fill:#1baa4b;stroke-width:0.264583"
       id="path826" />
    <path
       d="m 121.88562,120.46159 h -0.92075 v -12.08616 h 0.92075 z"
       style="fill:#1baa4b;stroke-width:0.264583"
       id="path828" />
    <path
       d="m 129.43948,119.09899 a 2.8495625,2.8495625 0 0 1 -1.0795,1.12977 3.1326667,3.1326667 0 0 1 -1.60867,0.39688 2.5585208,2.5585208 0 0 1 -2.07698,-0.89959 q -0.74877,-0.89693 -0.75142,-2.78871 v -4.85775 h 0.93134 v 4.87363 c 0,1.02129 0.17462,1.75683 0.52916,2.19869 a 1.778,1.778 0 0 0 1.48432,0.66675 2.7119792,2.7119792 0 0 0 1.66952,-0.46832 2.5003125,2.5003125 0 0 0 0.88106,-1.28322 v -5.98753 h 0.92869 v 8.382 h -0.82021 z"
       style="fill:#1baa4b;stroke-width:0.264583"
       id="path830" />
    <path
       d="m 143.22427,117.71787 a 1.7727083,1.7727083 0 0 0 -0.69056,-1.43405 q -0.69056,-0.56885 -2.33892,-1.05833 -1.80446,-0.49477 -2.74638,-1.2356 a 2.4182917,2.4182917 0 0 1 -0.94191,-2.01084 2.5982083,2.5982083 0 0 1 1.05833,-2.11666 4.1962917,4.1962917 0 0 1 2.68817,-0.83344 q 1.72244,0 2.76754,0.94192 a 2.9818542,2.9818542 0 0 1 1.01336,2.38125 l -0.0159,0.0476 h -0.87312 a 2.3997708,2.3997708 0 0 0 -0.80963,-1.85209 2.9897917,2.9897917 0 0 0 -2.08757,-0.73554 q -1.32291,0 -2.06375,0.62442 a 1.9155833,1.9155833 0 0 0 -0.74877,1.52929 1.74625,1.74625 0 0 0 0.67734,1.41287 q 0.67733,0.55563 2.38125,1.03452 a 7.8554792,7.8554792 0 0 1 2.71992,1.27794 2.4712083,2.4712083 0 0 1 0.93662,2.02671 2.5029583,2.5029583 0 0 1 -1.09537,2.11667 4.5640625,4.5640625 0 0 1 -2.76226,0.79375 5.0085625,5.0085625 0 0 1 -2.91041,-0.84932 2.7199167,2.7199167 0 0 1 -1.20121,-2.47385 l 0.0159,-0.0476 h 0.85989 a 2.1642917,2.1642917 0 0 0 0.98161,1.94733 4.0375417,4.0375417 0 0 0 2.24896,0.6403 3.4951458,3.4951458 0 0 0 2.11667,-0.59267 1.8150417,1.8150417 0 0 0 0.82021,-1.53458 z"
       style="fill:#1baa4b;stroke-width:0.264583"
       id="path832" />
    <path
       d="m 147.54227,109.93382 v 2.14577 h 1.85209 v 0.75936 h -1.85209 v 5.461 c 0,0.54769 0.10054,0.93662 0.29898,1.16681 a 0.99483333,0.99483333 0 0 0 0.79375,0.34396 2.6802292,2.6802292 0 0 0 0.33073,-0.0185 c 0.10583,-0.0132 0.23019,-0.0344 0.37571,-0.0661 l 0.13758,0.69056 a 1.9552708,1.9552708 0 0 1 -0.46037,0.15081 2.746375,2.746375 0 0 1 -0.54504,0.0582 1.7436042,1.7436042 0 0 1 -1.37584,-0.55827 c -0.32808,-0.37306 -0.49212,-0.96043 -0.49212,-1.76741 v -5.461 h -1.44727 v -0.75936 h 1.44727 v -2.14577 z"
       style="fill:#1baa4b;stroke-width:0.264583"
       id="path834" />
    <path
       d="m 156.23383,119.09899 a 2.873375,2.873375 0 0 1 -1.08214,1.12977 3.1167917,3.1167917 0 0 1 -1.60602,0.39688 2.555875,2.555875 0 0 1 -2.07698,-0.89959 q -0.74877,-0.89693 -0.75142,-2.78871 v -4.85775 h 0.92869 v 4.87363 c 0,1.02129 0.17462,1.75683 0.52917,2.19869 a 1.778,1.778 0 0 0 1.48431,0.66675 2.7172708,2.7172708 0 0 0 1.66952,-0.46832 2.4817917,2.4817917 0 0 0 0.87842,-1.28322 v -5.98753 h 0.93133 v 8.382 h -0.81756 z"
       style="fill:#1baa4b;stroke-width:0.264583"
       id="path836" />
    <path
       d="m 158.58069,116.33939 q 0,-2.0029 0.84931,-3.2094 a 2.7331458,2.7331458 0 0 1 2.38125,-1.2065 3.0136042,3.0136042 0 0 1 1.50548,0.36513 3.0691667,3.0691667 0 0 1 1.07421,1.02922 v -4.94241 h 0.92604 v 12.08616 h -0.75935 l -0.1323,-1.21708 a 2.9315833,2.9315833 0 0 1 -1.08479,1.02394 3.1988125,3.1988125 0 0 1 -1.54781,0.35719 2.7860625,2.7860625 0 0 1 -2.35215,-1.11919 q -0.84931,-1.11919 -0.84931,-3.00302 z m 0.93133,0.16404 c 0,1.01335 0.20109,1.81769 0.60854,2.41829 a 2.06375,2.06375 0 0 0 1.83092,0.89694 2.4950208,2.4950208 0 0 0 2.42623,-1.50284 v -3.96875 a 2.9633333,2.9633333 0 0 0 -0.89958,-1.16152 2.38125,2.38125 0 0 0 -1.51077,-0.44979 2.016125,2.016125 0 0 0 -1.85209,1.00277 4.9027292,4.9027292 0 0 0 -0.61648,2.60615 z"
       style="fill:#1baa4b;stroke-width:0.264583"
       id="path838" />
    <path
       d="m 169.84929,118.19147 0.29634,1.00012 h 0.045 l 2.5347,-7.112 h 1.03717 l -3.64067,9.72344 a 4.79425,4.79425 0 0 1 -0.84402,1.44727 1.8997083,1.8997083 0 0 1 -1.51871,0.59796 3.0929792,3.0929792 0 0 1 -0.39687,-0.0344 1.93675,1.93675 0 0 1 -0.33867,-0.0741 l 0.10848,-0.77523 c 0.0609,0 0.1614,0.0212 0.29634,0.0344 0.13493,0.0132 0.23812,0.0212 0.29897,0.0212 a 1.2117917,1.2117917 0 0 0 0.96838,-0.43127 3.7041667,3.7041667 0 0 0 0.61912,-1.10331 l 0.44186,-1.13242 -3.2385,-8.27352 h 1.03187 z"
       style="fill:#1baa4b;stroke-width:0.264583"
       id="path840" />
    <path
       d="m 104.7856,114.97149 a 7.7205417,7.7205417 0 0 0 -12.895793,-4.77837 v 0 c -0.460375,-0.9869 -1.116542,-1.65894 -1.94998,-1.89178 -0.833437,-0.23283 -1.690687,0 -2.57175,0.55298 v 0 c -1.19327,-8.4111 -8.22325,-15.515163 -16.300979,-15.515163 -3.868207,0 -7.082895,1.140354 -9.866312,3.600979 -0.486833,0.428625 -1.386416,1.378479 -1.386416,1.378479 l -2.410354,-0.264583 c -5.114396,-0.489479 -9.8425,2.836328 -11.482917,7.672918 a 9.4615,9.4615 0 0 0 0.370417,7.2046 c 0.05556,0.11113 -0.232834,0.0529 -0.232834,0.0529 -1.852083,0.19844 -2.955395,0.98425 -3.939645,2.34157 -0.672042,0.92868 -1.389063,5.13291 1.222375,5.13291 H 56.44887 c -0.140229,-1.27264 -0.22225,-2.29658 -0.264584,-3.80206 -0.02381,-0.9869 -0.02646,-1.97115 0,-2.95804 0.01323,-0.84931 0.129646,-1.73567 0,-2.57969 -0.129645,-0.84402 -0.550333,-1.5875 -0.79375,-2.40506 a 9.9695,9.9695 0 0 1 -0.264583,-4.04284 c 0.07144,-0.5715 0.137583,-1.29381 0.428625,-1.80181 0.243417,-0.43127 0.814917,-0.6694 1.058333,-0.0953 0.1905,0.42598 -0.320145,1.524 -0.264583,2.72785 0.06085,1.44727 1.095375,2.16694 2.460625,2.14048 1.36525,-0.0265 2.711979,0.71173 2.981854,2.06111 0.113771,0.57679 1.058334,6.23358 -0.529166,5.69118 l -0.02911,0.26459 c 0.05027,1.04246 -0.124354,3.21468 -0.283104,4.79689 h 4.804834 c -0.187855,-1.67746 -0.48948,-4.92918 -0.420688,-6.32883 l -0.03175,-0.29898 c -1.76212,0.6006 -0.71437,-5.65679 -0.58737,-6.29444 0.298979,-1.49225 1.397,-2.31246 2.944813,-2.28071 1.547811,0.0318 2.645832,-1.05833 2.722561,-2.64583 0.05556,-1.32292 -0.508,-2.54794 -0.298979,-3.018895 0.283104,-0.635 0.912813,-0.373062 1.185334,0.105833 0.320145,0.563562 0.394229,1.362602 0.473604,1.994962 0.182562,1.47637 0.132291,3.3311 -0.293688,4.7625 -0.264583,0.89164 -0.743479,1.73037 -0.875771,2.66171 -0.132291,0.93133 0,1.91293 0,2.85485 q 0.02911,1.63512 0,3.2729 a 48.810333,48.810333 0 0 1 -0.39952,5.22816 h 3.96875 c -0.15875,-1.5875 -0.333375,-3.75444 -0.283105,-4.79689 l -0.0291,-0.26459 c -1.5875,0.5424 -0.642937,-5.11439 -0.529166,-5.69118 0.264583,-1.34938 1.5875,-2.09021 2.981854,-2.06111 1.394354,0.0291 2.399771,-0.69321 2.460625,-2.14048 0.05027,-1.20385 -0.460375,-2.30187 -0.264584,-2.72785 0.264584,-0.57415 0.8255,-0.33602 1.058334,0.0952 0.288396,0.508 0.354541,1.23031 0.425979,1.80181 a 9.9695,9.9695 0 0 1 -0.264583,4.04283 c -0.240771,0.80698 -0.669396,1.56369 -0.79375,2.40507 -0.124354,0.84137 0,1.73037 0,2.57968 0.01852,0.9869 0.01588,1.97115 0,2.95805 -0.0344,1.50547 -0.119063,2.52941 -0.264584,3.80206 h 23.481773 a 2.0928542,2.0928542 0 0 0 1.8759,-1.13771 7.7496458,7.7496458 0 0 0 0.78845,-4.36298 z m -45.807314,-8.27352 a 1.5875,1.5875 0 1 1 1.5875,-1.5875 1.5875,1.5875 0 0 1 -1.5875,1.5875 z m 8.718021,-2.38125 a 1.68275,1.68275 0 1 1 1.68275,-1.68011 1.68275,1.68275 0 0 1 -1.693333,1.66953 z m 8.440208,2.38125 a 1.5875,1.5875 0 1 1 1.5875,-1.5875 1.5875,1.5875 0 0 1 -1.5875,1.5875 z"
       style="fill:#095da8;stroke-width:0.264583"
       id="path842" />
    <path
       d="m 104.67183,106.36195 v -4.93184 a 0.86254167,0.86254167 0 0 0 -0.86519,-0.86518 h -1.81769 a 0.86254167,0.86254167 0 0 0 -0.86518,0.86518 v 1.05834 c -0.0132,0.4736 -0.45244,0.49212 -0.6059,0.0794 l -0.584732,-2.20662 a 0.1825625,0.1825625 0 0 1 0,-0.0847 c 0.0662,-0.648231 0.182562,-1.852086 0.219612,-2.13519 0.037,-0.283104 0.21695,-1.566333 0.28839,-2.079625 h 0.54769 c 0.28575,0 1.24354,0.01852 1.20121,-0.4445 a 0.29633333,0.29633333 0 0 0 -0.16669,-0.232833 0.46566667,0.46566667 0 0 1 -0.10319,-0.05027 c -0.11906,-0.09525 0.0423,-0.171979 0.12436,-0.174625 0.26458,0 1.17475,0 1.05833,-0.460375 -0.0662,-0.240771 -0.36777,-0.357187 -0.58737,-0.396875 -0.11378,-0.02117 -0.23019,-0.0344 -0.34661,-0.04498 h -0.16669 v 0 c 0,0 0.0159,0 0,0 a 0.06879167,0.06879167 0 0 1 -0.0265,-0.119063 0.47889583,0.47889583 0 0 0 0.0714,-0.04763 c 0.23813,-0.264583 -0.56091,-0.500062 -0.68262,-0.545041 -0.46302,-0.164042 -0.94192,-0.264584 -1.412882,-0.394229 a 0.17727083,0.17727083 0 0 1 -0.127,-0.127 0.37041667,0.37041667 0 0 1 0,-0.14023 c 0.0238,-0.08731 0.388942,-0.02646 0.388942,-0.264583 0,-0.132291 -0.16669,-0.195791 -0.280462,-0.224895 a 0.1905,0.1905 0 0 1 -0.12964,-0.124345 0.30691667,0.30691667 0 0 0 -0.0794,-0.137584 0.6905625,0.6905625 0 0 0 -0.30427,-0.116416 l -0.20902,-0.05027 a 0.3095625,0.3095625 0 0 1 -0.26458,-0.182563 0.67997917,0.67997917 0 0 1 -0.045,-0.264583 c 0,-0.304271 0,-0.608542 0,-0.912813 0,-0.264583 0,-0.529166 0,-0.777875 a 0.14816667,0.14816667 0 0 0 -0.14288,-0.140229 h -0.045 a 0.14816667,0.14816667 0 0 0 -0.15346,0.124354 v 0.79375 c 0,0.304271 0,0.608542 0,0.912813 a 0.66675,0.66675 0 0 1 -0.045,0.264583 0.3175,0.3175 0 0 1 -0.26459,0.198438 l -0.21166,0.05027 a 0.67997917,0.67997917 0 0 0 -0.30163,0.116416 0.3413125,0.3413125 0 0 0 -0.08202,0.137584 0.1825625,0.1825625 0 0 1 -0.127,0.124354 c -0.116416,0.0291 -0.280458,0.0926 -0.280458,0.224895 0,0.235479 0.365125,0.174625 0.388938,0.264583 a 0.37041667,0.37041667 0 0 1 0,0.14023 0.17727083,0.17727083 0 0 1 -0.127,0.127 c -0.470959,0.127 -0.949855,0.230187 -1.412875,0.394229 -0.121709,0.04498 -0.92075,0.288396 -0.682625,0.545041 a 0.47889583,0.47889583 0 0 0 0.07144,0.04763 0.06879167,0.06879167 0 0 1 -0.02646,0.119063 c -0.02381,0 -0.01588,0 0,0 v 0 H 95.29218 c -0.116416,0 -0.232833,0.02381 -0.346604,0.04498 -0.219604,0.03969 -0.529167,0.156104 -0.587375,0.396875 -0.121708,0.455083 0.79375,0.455083 1.058334,0.460375 0.08202,0 0.243416,0.07937 0.124354,0.174625 a 0.48683333,0.48683333 0 0 1 -0.105834,0.05027 0.2936875,0.2936875 0 0 0 -0.164041,0.232833 c -0.04498,0.463021 0.915458,0.4445 1.201208,0.4445 h 0.624417 c 0.07144,0.513292 0.246062,1.764771 0.28575,2.079625 0.03969,0.314854 0.198437,1.672167 0.264583,2.135186 l -0.01588,0.26458 -0.669396,2.84692 a 0.24341667,0.24341667 0 0 1 -0.248708,0.18256 h -0.09525 a 0.238125,0.238125 0 0 1 -0.224896,-0.23812 v -3.357563 a 0.9525,0.9525 0 0 0 -0.9525,-0.9525 0.238125,0.238125 0 0 1 -0.238125,-0.238125 v -0.232834 a 0.69585417,0.69585417 0 0 0 -0.79375,-0.693208 h -0.965559 a 0.69320833,0.69320833 0 0 0 -0.695854,0.695854 v 4.807476 c -0.01323,0.32279 -0.883709,0.39159 -0.865188,-0.082 v -8.884706 a 0.48154167,0.48154167 0 0 0 -0.714375,-0.362479 l -3.108854,1.563688 a 0.41539583,0.41539583 0 0 0 -0.238125,0.362479 v 2.928937 a 0.238125,0.238125 0 0 1 -0.404813,0.169334 9.382125,9.382125 0 0 0 -1.11125,-0.915459 c -1.529291,-1.058333 -2.042583,-0.441854 -1.920874,-0.293687 0.407458,0.494771 0.09789,0.103187 0.478895,0.584729 0.103188,0.132292 0.20373,0.264583 0.304271,0.399521 l 0.291042,0.396875 a 20.849167,20.849167 0 0 1 3.175,6.765398 0.23283333,0.23283333 0 0 0 0.251354,0.17462 c 0.132292,0 0.264583,-0.0185 0.394229,-0.0185 a 4.2333333,4.2333333 0 0 1 1.127125,0.15346 4.318,4.318 0 0 1 1.754188,0.98954 0.23547917,0.23547917 0 0 0 0.277812,0.0344 9.4350417,9.4350417 0 0 1 4.675188,-1.23296 c 0.309562,0 0.624416,0.0159 0.936629,0.045 a 9.445625,9.445625 0 0 1 6.199182,3.20411 0.238125,0.238125 0 0 0 0.4154,-0.15611 v -2.26218 c 0,0 0,-0.26459 0,-0.52917 a 0.26458333,0.26458333 0 0 0 0.008,-0.0503 z m -6.532562,-6.08542 c 0,0.0185 -0.0609,0.0238 -0.0661,0 a 0.32279167,0.32279167 0 0 1 0,-0.045 c -0.05821,-0.529165 -0.216961,-1.902353 -0.24342,-2.177519 -0.02646,-0.275167 -0.08996,-1.187979 -0.127,-1.743604 a 0.23547917,0.23547917 0 0 1 0.238125,-0.264584 h 0.01323 a 0.19579167,0.19579167 0 0 1 0.137585,0.05821 0.32014583,0.32014583 0 0 1 0.0556,0.20902 v 3.950227 z m 1.4896,-2.219852 c -0.0212,0.235479 -0.14287,1.508125 -0.21167,2.190752 a 0.08202083,0.08202083 0 0 0 0,0.0291 c 0,0.045 -0.10583,0.0476 -0.10318,0 v -3.939648 a 0.32014583,0.32014583 0 0 1 0.0556,-0.209021 0.19314583,0.19314583 0 0 1 0.13758,-0.05821 h 0.0159 a 0.238125,0.238125 0 0 1 0.23813,0.264583 c -0.0423,0.545042 -0.10848,1.494896 -0.1323,1.733021 z"
       style="fill:#095da8;stroke-width:0.264583"
       id="path844" />
    <g
       aria-label="powered by the"
       transform="matrix(0.26458333,0,0,0.26458333,89.752357,48.000031)"
       id="text898"
       style="font-style:normal;font-weight:normal;font-size:29.3333px;line-height:1.25;font-family:sans-serif;white-space:pre;shape-inside:url(#rect900);fill:#666666;fill-opacity:1;stroke:none">
      <path
         d="m 86.321612,136.46353 h 1.97656 v 1.83333 q 1.819008,-1.47526 2.749997,-1.79036 0.930989,-0.31511 1.618488,-0.32943 2.936194,0 4.669265,2.44922 1.747394,2.43489 1.747394,5.54296 0,3.10807 -1.446613,5.28515 -1.690102,2.54948 -4.84114,2.54948 -3.136715,0 -4.497391,-1.50391 v 7.0039 h -1.97656 z m 9.596343,3.55208 q -1.188801,-1.86198 -3.30859,-1.86198 -2.105466,0 -4.311193,2.97916 v 6.0013 q 0.98828,1.83333 3.022132,2.60677 0.744791,0.28646 1.53255,0.28646 0.802083,0 1.389322,-0.24349 0.601562,-0.24349 1.074217,-0.65886 0.88802,-0.78776 1.33203,-2.09114 0.458333,-1.31771 0.458333,-2.5638 0,-2.59244 -1.188801,-4.45442 z"
         style="font-style:normal;font-variant:normal;font-weight:normal;font-stretch:normal;font-size:29.3333px;font-family:AnjaliOldLipi;-inkscape-font-specification:AnjaliOldLipi;fill:#666666;fill-opacity:1"
         id="path1220" />
      <path
         d="m 110.39841,138.48306 q -0.81641,-0.31511 -2.13412,-0.31511 -1.3177,0 -2.32031,0.57292 -0.98828,0.57292 -1.56119,1.46094 -1.0599,1.60416 -1.0599,3.85286 0,2.24869 1.07422,3.92447 1.33203,2.0625 4.03906,2.07682 2.70703,0 4.05338,-2.26302 1.03125,-1.71874 1.01693,-3.70963 0,-4.39713 -3.10807,-5.60025 z m -6.27343,-0.97396 q 0.80208,-0.60156 1.86197,-0.95963 1.07422,-0.35808 2.54948,-0.35808 1.48958,0 2.62109,0.41537 1.13151,0.41536 1.90495,1.10286 1.37499,1.1888 1.89062,2.96484 0.52995,1.76172 0.52995,2.90755 0,1.14583 -0.12891,1.97656 -0.30078,1.81901 -1.31771,3.46614 -0.51562,0.85938 -1.28906,1.51823 -1.73307,1.48958 -4.29687,1.48958 -2.54947,0 -4.29687,-1.34635 -2.16276,-1.64713 -2.66406,-4.88411 -0.14323,-0.90234 -0.14323,-1.71875 0,-0.83073 0.12891,-1.73307 0.14323,-0.90234 0.47266,-1.77604 0.32942,-0.88802 0.85937,-1.67578 0.52995,-0.80208 1.31771,-1.38932 z"
         style="font-style:normal;font-variant:normal;font-weight:normal;font-stretch:normal;font-size:29.3333px;font-family:AnjaliOldLipi;-inkscape-font-specification:AnjaliOldLipi;fill:#666666;fill-opacity:1"
         id="path1222" />
      <path
         d="m 122.65881,148.30857 3.60937,-11.85936 h 2.03385 l 3.69531,11.81639 3.5664,-12.08853 1.89063,0.54427 -4.38281,14.93879 h -2.09115 l -3.68098,-11.77343 q -1.93359,6.41666 -3.59505,11.77343 h -2.09114 l -4.54036,-14.92447 1.89062,-0.57291 z"
         style="font-style:normal;font-variant:normal;font-weight:normal;font-stretch:normal;font-size:29.3333px;font-family:AnjaliOldLipi;-inkscape-font-specification:AnjaliOldLipi;fill:#666666;fill-opacity:1"
         id="path1224" />
      <path
         d="m 141.164,144.61326 q 0.21484,2.34896 1.54687,3.89583 1.34635,1.53255 3.50911,1.53255 1.99088,-0.0143 3.30859,-1.16016 0.54427,-0.45833 0.78776,-0.93098 0.25781,-0.48698 0.25781,-0.75912 h 1.97656 q 0.0143,1.24609 -1.5039,2.86458 -1.84766,1.96224 -5.1276,1.96224 -1.40365,0 -2.72135,-0.64453 -1.30339,-0.65885 -2.20573,-1.77604 -1.83333,-2.27734 -1.83333,-5.58593 0,-3.32292 1.80468,-5.57161 1.81901,-2.2487 5.1276,-2.2487 3.32292,0 5.1276,2.16276 1.80469,2.14844 1.80469,6.25911 z m 9.8255,-1.97656 q -0.5013,-4.46875 -5.08462,-4.46875 -1.91927,0 -3.15104,1.28907 -1.23177,1.28906 -1.53255,3.17968 z"
         style="font-style:normal;font-variant:normal;font-weight:normal;font-stretch:normal;font-size:29.3333px;font-family:AnjaliOldLipi;-inkscape-font-specification:AnjaliOldLipi;fill:#666666;fill-opacity:1"
         id="path1226" />
      <path
         d="m 158.25122,138.85545 q 1.89062,-2.66406 4.48307,-2.66406 h 1.33203 v 1.97656 h -1.33203 q -1.70443,0 -3.03646,1.77604 -0.98828,1.30339 -1.44661,3.05078 v 8.66536 h -1.97656 v -15.21092 h 1.97656 z"
         style="font-style:normal;font-variant:normal;font-weight:normal;font-stretch:normal;font-size:29.3333px;font-family:AnjaliOldLipi;-inkscape-font-specification:AnjaliOldLipi;fill:#666666;fill-opacity:1"
         id="path1228" />
      <path
         d="m 167.28896,144.61326 q 0.21485,2.34896 1.54688,3.89583 1.34635,1.53255 3.50911,1.53255 1.99088,-0.0143 3.30859,-1.16016 0.54427,-0.45833 0.78776,-0.93098 0.25781,-0.48698 0.25781,-0.75912 h 1.97656 q 0.0143,1.24609 -1.5039,2.86458 -1.84766,1.96224 -5.1276,1.96224 -1.40365,0 -2.72135,-0.64453 -1.30339,-0.65885 -2.20573,-1.77604 -1.83333,-2.27734 -1.83333,-5.58593 0,-3.32292 1.80468,-5.57161 1.81901,-2.2487 5.1276,-2.2487 3.32292,0 5.1276,2.16276 1.80469,2.14844 1.80469,6.25911 z m 9.82551,-1.97656 q -0.5013,-4.46875 -5.08463,-4.46875 -1.91926,0 -3.15103,1.28907 -1.23177,1.28906 -1.53255,3.17968 z"
         style="font-style:normal;font-variant:normal;font-weight:normal;font-stretch:normal;font-size:29.3333px;font-family:AnjaliOldLipi;-inkscape-font-specification:AnjaliOldLipi;fill:#666666;fill-opacity:1"
         id="path1230" />
      <path
         d="m 194.25899,151.66013 h -1.97656 v -1.76172 q -1.81901,1.47526 -2.75,1.79036 -0.93099,0.31511 -1.79036,0.31511 -0.85937,0.0143 -1.73307,-0.31511 -0.8737,-0.3151 -1.58984,-0.88802 -1.38932,-1.08854 -2.16276,-2.96484 -0.75911,-1.89062 -0.75911,-4.05338 0,-2.86458 1.44661,-5.04166 1.6901,-2.54948 4.82682,-2.54948 3.15103,0 4.51171,1.50391 v -6.96093 h 1.97656 z m -9.59634,-3.48047 q 1.1888,1.86198 3.29426,1.86198 2.11979,0 4.32552,-2.97916 v -6.0013 q -1.0026,-1.81901 -3.02213,-2.60677 -0.74479,-0.28646 -1.54688,-0.28646 -0.78776,0 -1.38932,0.24349 -0.58724,0.24349 -1.05989,0.65886 -0.88802,0.78776 -1.34635,2.10546 -0.44401,1.30339 -0.44401,2.54948 0,2.59244 1.1888,4.45442 z"
         style="font-style:normal;font-variant:normal;font-weight:normal;font-stretch:normal;font-size:29.3333px;font-family:AnjaliOldLipi;-inkscape-font-specification:AnjaliOldLipi;fill:#666666;fill-opacity:1"
         id="path1232" />
      <path
         d="m 213.46599,152.0182 q -2.30598,0 -4.36848,-1.6901 v 1.33203 h -1.97656 v -20.92576 h 1.97656 v 7.8203 q 2.14843,-2.36328 4.61197,-2.36328 3.03646,0 4.72656,2.54948 1.44661,2.17708 1.44661,5.27083 0,3.09374 -1.73307,5.55728 -1.71875,2.44922 -4.68359,2.44922 z m -4.36848,-4.52604 q 1.8763,2.54948 4.49739,2.54948 0.94531,0 1.77604,-0.52995 0.83073,-0.52995 1.38932,-1.40364 1.14583,-1.79037 1.14583,-4.11068 0,-2.32031 -0.97395,-3.95312 -0.6875,-1.14583 -1.89063,-1.63281 -0.60156,-0.24349 -1.26041,-0.24349 -0.64453,0 -1.17448,0.20053 -0.51562,0.18619 -0.97396,0.5013 -0.77343,0.52994 -1.46093,1.43229 -0.6875,0.88802 -1.07422,1.61848 z"
         style="font-style:normal;font-variant:normal;font-weight:normal;font-stretch:normal;font-size:29.3333px;font-family:AnjaliOldLipi;-inkscape-font-specification:AnjaliOldLipi;fill:#666666;fill-opacity:1"
         id="path1234" />
      <path
         d="m 228.54801,148.91013 4.52604,-12.71874 1.86197,0.65886 q -1.23177,3.49479 -2.0052,5.68619 -0.77344,2.17708 -1.24609,3.52343 -0.47266,1.33203 -0.90235,2.53516 -0.42968,1.20312 -0.78776,2.1914 -0.35807,0.97396 -0.64453,1.74739 -0.28645,0.78776 -0.60156,1.5612 -0.30078,0.78776 -0.65885,1.40364 -0.74479,1.26042 -1.93359,1.79037 -1.1888,0.54427 -3.46615,0.54427 v -1.97656 q 2.29167,0 3.23698,-0.93099 0.48698,-0.48698 0.83073,-1.26042 0.35807,-0.77343 0.75911,-1.8763 l -5.57161,-14.91014 1.86198,-0.6875 z"
         style="font-style:normal;font-variant:normal;font-weight:normal;font-stretch:normal;font-size:29.3333px;font-family:AnjaliOldLipi;-inkscape-font-specification:AnjaliOldLipi;fill:#666666;fill-opacity:1"
         id="path1236" />
      <path
         d="m 248.55711,148.05076 q 0,1.63281 1.66145,1.63281 h 1.57552 v 1.97656 h -1.57552 q -1.34635,0 -2.34895,-0.75912 -1.28906,-0.95963 -1.28906,-2.85025 v -9.46744 h -2.17708 v -1.97656 h 2.17708 v -3.91015 h 1.97656 v 3.91015 h 2.8789 v 1.97656 h -2.8789 z"
         style="font-style:normal;font-variant:normal;font-weight:normal;font-stretch:normal;font-size:29.3333px;font-family:AnjaliOldLipi;-inkscape-font-specification:AnjaliOldLipi;fill:#666666;fill-opacity:1"
         id="path1238" />
      <path
         d="m 256.27715,138.64061 q 2.32031,-2.44922 4.68359,-2.44922 2.10547,0 3.68098,1.47526 1.57552,1.47526 1.57552,3.38021 v 10.61327 h -1.97656 v -10.61327 q 0.0143,-1.11719 -0.94531,-1.99089 -0.95963,-0.88802 -2.16276,-0.88802 -1.77604,0 -3.55208,1.97656 -0.60156,0.6875 -1.30338,1.61849 v 9.9401 h -1.97656 v -21.02602 h 1.97656 z"
         style="font-style:normal;font-variant:normal;font-weight:normal;font-stretch:normal;font-size:29.3333px;font-family:AnjaliOldLipi;-inkscape-font-specification:AnjaliOldLipi;fill:#666666;fill-opacity:1"
         id="path1240" />
      <path
         d="m 271.67426,144.61326 q 0.21484,2.34896 1.54687,3.89583 1.34635,1.53255 3.50911,1.53255 1.99088,-0.0143 3.30859,-1.16016 0.54427,-0.45833 0.78776,-0.93098 0.25781,-0.48698 0.25781,-0.75912 h 1.97656 q 0.0143,1.24609 -1.5039,2.86458 -1.84766,1.96224 -5.1276,1.96224 -1.40364,0 -2.72135,-0.64453 -1.30339,-0.65885 -2.20573,-1.77604 -1.83333,-2.27734 -1.83333,-5.58593 0,-3.32292 1.80469,-5.57161 1.819,-2.2487 5.12759,-2.2487 3.32292,0 5.1276,2.16276 1.80469,2.14844 1.80469,6.25911 z m 9.82551,-1.97656 q -0.50131,-4.46875 -5.08463,-4.46875 -1.91927,0 -3.15104,1.28907 -1.23177,1.28906 -1.53255,3.17968 z"
         style="font-style:normal;font-variant:normal;font-weight:normal;font-stretch:normal;font-size:29.3333px;font-family:AnjaliOldLipi;-inkscape-font-specification:AnjaliOldLipi;fill:#666666;fill-opacity:1"
         id="path1242" />
    </g>
  </g>
</svg>
